<svg width="1280" height="340" viewBox="0 0 1280 340" fill="none" xmlns="http://www.w3.org/2000/svg">
  <defs>
    <linearGradient id="bg" x1="0" y1="0" x2="1280" y2="340" gradientUnits="userSpaceOnUse">
      <stop stop-color="#05080D"/>
      <stop offset="1" stop-color="#09111B"/>
    </linearGradient>
    <linearGradient id="beam" x1="0" y1="0" x2="1280" y2="0" gradientUnits="userSpaceOnUse">
      <stop stop-color="#E0E0E1" stop-opacity="0"/>
      <stop offset="0.5" stop-color="#E0E0E1" stop-opacity="0.22"/>
      <stop offset="1" stop-color="#E0E0E1" stop-opacity="0"/>
    </linearGradient>
    <pattern id="grid" width="28" height="28" patternUnits="userSpaceOnUse">
      <path d="M 28 0 L 0 0 0 28" stroke="#E0E0E1" stroke-opacity="0.07" stroke-width="1"/>
    </pattern>
  </defs>

  <rect width="1280" height="340" fill="url(#bg)"/>
  <rect width="1280" height="340" fill="url(#grid)"/>
  <rect width="1280" height="340" fill="url(#beam)"/>

  <circle cx="1090" cy="80" r="140" fill="#E0E0E1" fill-opacity="0.03"/>
  <circle cx="1090" cy="80" r="110" stroke="#E0E0E1" stroke-opacity="0.10"/>
  <circle cx="1090" cy="80" r="78" stroke="#E0E0E1" stroke-opacity="0.08"/>
  <circle cx="1090" cy="80" r="44" stroke="#E0E0E1" stroke-opacity="0.06"/>

  <rect x="70" y="34" width="1140" height="272" rx="20" fill="#07101A" stroke="#E0E0E1" stroke-opacity="0.36" stroke-width="2"/>
  <rect x="70" y="34" width="1140" height="34" rx="20" fill="#0D1824"/>
  <circle cx="96" cy="51" r="5" fill="#E0E0E1" fill-opacity="0.95"/>
  <circle cx="114" cy="51" r="5" fill="#E0E0E1" fill-opacity="0.65"/>
  <circle cx="132" cy="51" r="5" fill="#E0E0E1" fill-opacity="0.35"/>
  <text x="160" y="56" fill="#E0E0E1" fill-opacity="0.82" font-family="monospace" font-size="14">root@blazepwn: ~/README.md</text>

  <text x="112" y="116" fill="#E0E0E1" font-family="monospace" font-size="18">root@blazepwn:~# whoami</text>
  <text x="112" y="154" fill="#E0E0E1" font-family="monospace" font-size="34" font-weight="700">Emmanuel Aguilar Montano</text>

  <text x="112" y="204" fill="#E0E0E1" font-family="monospace" font-size="18">root@blazepwn:~# cat focus.txt</text>
  <text x="112" y="238" fill="#E0E0E1" fill-opacity="0.94" font-family="monospace" font-size="22">ciberseguridad / pentesting / linux / redes</text>

  <text x="112" y="286" fill="#E0E0E1" font-family="monospace" font-size="18">root@blazepwn:~# curl -fsSL https://blazepwn.com</text>
  <text x="112" y="320" fill="#E0E0E1" fill-opacity="0.94" font-family="monospace" font-size="21">tty | nmap | ansible | vmware | hyprland</text>

  <rect x="860" y="108" width="274" height="132" rx="14" fill="#09141F" stroke="#E0E0E1" stroke-opacity="0.24"/>
  <text x="884" y="138" fill="#E0E0E1" font-family="monospace" font-size="16">STATUS</text>
  <text x="884" y="170" fill="#E0E0E1" fill-opacity="0.90" font-family="monospace" font-size="15">BLOG : blazepwn.com</text>
  <text x="884" y="194" fill="#E0E0E1" fill-opacity="0.90" font-family="monospace" font-size="15">ROLE : redes + ciberseguridad</text>
  <text x="884" y="218" fill="#E0E0E1" fill-opacity="0.90" font-family="monospace" font-size="15">LANG : es</text>
</svg>
